<svg xmlns="http://www.w3.org/2000/svg" xmlns:xlink="http://www.w3.org/1999/xlink" fill="none" version="1.1" width="25" height="28" viewBox="0 0 25 28"><defs><clipPath id="master_svg0_2_0164"><rect x="0" y="4" width="25" height="20" rx="0"/></clipPath></defs><g><rect x="0" y="0" width="25" height="28" rx="0" fill="#000000" fill-opacity="0" style="mix-blend-mode:passthrough"/><g clip-path="url(#master_svg0_2_0164)"><g transform="matrix(1,0,0,-1,0,46.359375)"><g><path d="M2.5,38.1796875Q2.53906,39.2343875,3.24219,39.9374875Q3.94531,40.640587499999995,5,40.6796875L20,40.6796875Q21.0547,40.640587499999995,21.7578,39.9374875Q22.4609,39.2343875,22.5,38.1796875L22.5,28.1796875L20,28.1796875L20,38.1796875L5,38.1796875L5,28.1796875L2.5,28.1796875L2.5,38.1796875ZM0,26.1874975Q0.078125,26.8515675,0.742188,26.9296875L24.2578,26.9296875Q24.9219,26.8515675,25,26.1874975Q24.9609,24.8984375,24.1406,24.0390625Q23.2812,23.21875,21.9922,23.1796875L3.00781,23.1796875Q1.71875,23.21875,0.898438,24.0390625Q0.0390625,24.8984375,0,26.1874975ZM10.9766,33.7655875L9.76562,32.5546875L10.9766,33.7655875L9.76562,32.5546875L10.9766,31.3437475Q11.5234,30.6796875,10.9766,30.0156275Q10.3125,29.4687475,9.64844,30.0156275L7.77344,31.8906275Q7.22656,32.5546875,7.77344,33.2187875L9.64844,35.0937875Q10.3125,35.6405875,10.9766,35.0937875Q11.5234,34.4296875,10.9766,33.7655875ZM15.3516,35.0937875L17.2266,33.2187875L15.3516,35.0937875L17.2266,33.2187875Q17.7734,32.5546875,17.2266,31.8906275L15.3516,30.0156275Q14.6875,29.4687475,14.0234,30.0156275Q13.4766,30.6796875,14.0234,31.3437475L15.2344,32.5546875L14.0234,33.7655875Q13.4766,34.4296875,14.0234,35.0937875Q14.6875,35.6405875,15.3516,35.0937875Z" fill="#000000" fill-opacity="1" style="mix-blend-mode:passthrough"/></g></g></g></g></svg>