<svg xmlns="http://www.w3.org/2000/svg" xmlns:xlink="http://www.w3.org/1999/xlink" fill="none" version="1.1" width="25" height="20" viewBox="0 0 25 20"><defs><clipPath id="master_svg0_2_0174"><rect x="0" y="0" width="25" height="20" rx="0"/></clipPath></defs><g clip-path="url(#master_svg0_2_0174)"><g transform="matrix(1,0,0,-1,0,40.859375)"><g><path d="M8.152166666595935,26.6796875Q11.568336666595936,26.7578075,13.858736666595936,28.7109375Q16.149036666595936,30.6249875,16.226736666595936,33.5546875Q16.149036666595936,36.4843875,13.858736666595936,38.3984875Q11.568336666595936,40.3515875,8.152166666595935,40.4296875Q4.736026666595936,40.3515875,2.4456466665959358,38.3984875Q0.1552764665959358,36.4843875,0.07763666659593582,33.5546875Q0.11645656659593581,31.2499875,1.6304366665959358,29.5312475Q1.3975166665959358,28.9453175,1.0481336665959358,28.5546875Q0.7763946665959358,28.2031275,0.5434756665959358,28.0078075Q0.4270156665959358,27.8906275,0.3881956665959358,27.8515675Q0.34937566659593583,27.8124975,0.34937566659593583,27.8124975L0.3105556665959358,27.8124975Q-0.000003133404064173395,27.5390675,0.11645656659593581,27.1093775Q0.27173566659593584,26.7187475,0.6987546665959358,26.6796875Q2.018626666595936,26.7187475,3.105586666595936,27.1484375Q3.6490666665959357,27.3828075,4.076086666595936,27.6171875Q5.900616666595936,26.7187475,8.152166666595935,26.6796875ZM17.468936666595937,33.5546875Q17.352436666595935,30.1953075,14.984436666595936,28.0078075Q12.577636666595936,25.8203075,9.083846666595935,25.4687475Q9.821426666595936,23.2421875,11.917736666595935,21.8749975Q14.013936666595935,20.46875,16.847836666595935,20.4296875Q19.099336666595935,20.46875,20.923936666595935,21.3671875Q21.350936666595935,21.1328125,21.894436666595936,20.8984375Q22.981336666595936,20.46875,24.301236666595937,20.4296875Q24.728236666595937,20.46875,24.883536666595937,20.8593755Q25.000036666595935,21.2890625,24.650636666595936,21.5624975L24.650636666595936,21.6015675Q24.611836666595934,21.6015675,24.611836666595934,21.6015675Q24.572936666595936,21.6406275,24.456536666595937,21.7578075Q24.223636666595937,21.9531275,23.951836666595934,22.3046875Q23.602436666595935,22.7343775,23.369536666595934,23.2812475Q24.883536666595937,24.9999975,24.922336666595935,27.3046875Q24.844736666595935,30.0781275,22.748436666595936,31.9921875Q20.652136666595936,33.9062875,17.430136666595935,34.1796875Q17.468936666595937,33.8671875,17.468936666595937,33.5546875Z" fill="#000000" fill-opacity="1" style="mix-blend-mode:passthrough"/></g></g></g></svg>