<svg xmlns="http://www.w3.org/2000/svg" xmlns:xlink="http://www.w3.org/1999/xlink" fill="none" version="1.1" width="20" height="20" viewBox="0 0 20 20"><defs><clipPath id="master_svg0_2_0179"><rect x="0" y="0" width="20" height="20" rx="0"/></clipPath></defs><g clip-path="url(#master_svg0_2_0179)"><g transform="matrix(1,0,0,-1,0,40.859375)"><g><path d="M16.25,32.3046875Q16.2109,29.5703075,14.6875,27.4999975L19.6484,22.5781275Q20,22.1874975,20,21.6796875Q20,21.1718755,19.6484,20.7812495Q19.2578,20.4296875,18.75,20.4296875Q18.2422,20.4296875,17.8516,20.7812495L12.9297,25.7421875Q10.8594,24.2187475,8.125,24.1796875Q4.6875,24.2578075,2.38281,26.5624975Q0.078125,28.8671875,0,32.3046875Q0.078125,35.7421875,2.38281,38.0468875Q4.6875,40.3515875,8.125,40.4296875Q11.5625,40.3515875,13.8672,38.0468875Q16.1719,35.7421875,16.25,32.3046875ZM8.125,26.6796875Q9.64844,26.6796875,10.9375,27.4218775Q12.2266,28.1640675,13.0078,29.4921875Q13.75,30.8202875,13.75,32.3046875Q13.75,33.7890875,13.0078,35.1171875Q12.2266,36.4452875,10.9375,37.1874875Q9.64844,37.9296875,8.125,37.9296875Q6.60156,37.9296875,5.3125,37.1874875Q4.02344,36.4452875,3.24219,35.1171875Q2.5,33.7890875,2.5,32.3046875Q2.5,30.8202875,3.24219,29.4921875Q4.02344,28.1640675,5.3125,27.4218775Q6.60156,26.6796875,8.125,26.6796875Z" fill="#000000" fill-opacity="1" style="mix-blend-mode:passthrough"/></g></g></g></svg>